<?xml version="1.0" encoding="utf-8"?>
<!-- Generator: Adobe Illustrator 19.2.1, SVG Export Plug-In . SVG Version: 6.00 Build 0)  -->
<svg version="1.1" id="layer" xmlns="http://www.w3.org/2000/svg" xmlns:xlink="http://www.w3.org/1999/xlink" x="0px" y="0px"
	 viewBox="0 0 652 652" style="enable-background:new 0 0 652 652;" xml:space="preserve">
<style type="text/css">
	.st0{fill:#1E4490;}
	.st1{fill:#FFEB00;}
	.st2{fill:#E11F26;}
	.st3{fill:#FFFFFF;}
	.st4{fill:#1C1C1B;}
</style>
<g>
	<g id="XMLID_2742_">
		<polygon id="XMLID_2746_" class="st0" points="178.6,480 20.5,450.4 20.5,213.3 178.6,164 		"/>
		<path id="XMLID_2745_" class="st1" d="M20.5,393.4v-61.5c8,2.2,16.8,3.2,22.7-0.4c12.8-7.6,32.1-30.9,32.1-30.9
			s-10.2,25.1-6.4,34.4c4.1,9.8,28.2,10.3,28.2,10.3s-27.3,16.6-40,27.6C44.1,384.1,35,425.4,35,425.4S28.7,399,20.5,393.4"/>
		<path id="XMLID_2744_" class="st2" d="M178.6,284.9c-5.5,3.4-10.8,6.2-14.9,6.9c-12.7,2.5-26.3-12.1-26.3-12.1s3.2,21.3-4.8,34.5
			c-8.4,13.9-35.5,31.2-35.5,31.2s29.9-5.8,35.7,3.5c6.2,9.9,7,44.6,7,44.6s15.2-41.6,29.1-47.2c2.7-1.1,6.1-2.2,9.6-3.2V284.9z"/>
		<path id="XMLID_2743_" class="st3" d="M75.3,300.6c0,0,15.3-23.9,14.3-32.5c-0.9-8.1-16.8-11-16.8-11s20.7-5.1,29.8-13.2
			c8.7-7.9,16.4-24.2,16.4-24.2s1.9,13.5,9.7,15.4c8,2,29.4-6.6,29.4-6.6s-16.9,16-23.5,24.7c-6.9,9.1,2.8,26.4,2.8,26.4
			s-17.9-6.2-27.9-4.4C99.6,277.2,75.3,300.6,75.3,300.6"/>
	</g>
	<g>
		<path class="st4" d="M257.5,282.5v-59.3h38.1v9.1h-27.3V247h24.3v9h-24.3v17.4h29.3v9.2C297.7,282.5,257.5,282.5,257.5,282.5z"/>
		<path class="st4" d="M341.9,280.2c-2,0.5-4.6,1-7.8,1.6c-3.2,0.5-6.7,0.8-10.5,0.8c-3.6,0-6.6-0.5-9-1.5c-2.4-1-4.4-2.5-5.8-4.3
			c-1.5-1.8-2.5-4-3.1-6.5c-0.6-2.5-0.9-5.3-0.9-8.3v-25.1H315v23.4c0,4.8,0.7,8.2,2.1,10.3c1.4,2.1,3.8,3.1,7.3,3.1
			c1.2,0,2.6-0.1,4-0.2c1.4-0.1,2.4-0.3,3.1-0.4v-36.2h10.4C341.9,236.8,341.9,280.2,341.9,280.2z"/>
		<path class="st4" d="M380,247.1c-0.9-0.3-2-0.6-3.6-0.9c-1.5-0.3-3.3-0.5-5.3-0.5c-1.1,0-2.4,0.1-3.6,0.3s-2.2,0.4-2.7,0.6v35.8
			h-10.4v-42.6c2-0.7,4.5-1.4,7.5-2.1c3-0.7,6.3-1,10-1c0.7,0,1.5,0,2.4,0.1c0.9,0.1,1.8,0.2,2.7,0.3c0.9,0.1,1.8,0.3,2.7,0.5
			c0.9,0.2,1.5,0.4,2.1,0.6L380,247.1z"/>
		<path class="st4" d="M429,259c0,3.5-0.5,6.8-1.5,9.7c-1,2.9-2.5,5.4-4.4,7.4c-1.9,2.1-4.2,3.7-6.8,4.8c-2.7,1.1-5.6,1.7-8.8,1.7
			s-6.1-0.6-8.7-1.7c-2.6-1.1-4.9-2.7-6.8-4.8c-1.9-2.1-3.4-4.5-4.4-7.4c-1-2.9-1.6-6.1-1.6-9.7c0-3.5,0.5-6.7,1.6-9.6
			c1.1-2.9,2.5-5.3,4.5-7.4c1.9-2.1,4.2-3.6,6.8-4.7c2.6-1.1,5.5-1.7,8.6-1.7s6,0.6,8.7,1.7c2.7,1.1,4.9,2.7,6.8,4.7
			c1.9,2.1,3.3,4.5,4.4,7.4C428.4,252.2,429,255.4,429,259z M418.4,259c0-4.5-1-8-2.9-10.6c-1.9-2.6-4.6-3.9-8-3.9s-6.1,1.3-8,3.9
			c-1.9,2.6-2.9,6.1-2.9,10.6c0,4.5,1,8.1,2.9,10.7c1.9,2.6,4.6,3.9,8,3.9s6.1-1.3,8-3.9C417.4,267,418.4,263.5,418.4,259z"/>
		<path class="st4" d="M479.4,260.2c0,3.4-0.4,6.6-1.3,9.4c-0.9,2.9-2.2,5.3-3.8,7.4c-1.6,2.1-3.7,3.6-6.2,4.8
			c-2.5,1.1-5.3,1.7-8.4,1.7c-2.1,0-4.1-0.3-5.8-0.8c-1.8-0.5-3.2-1.1-4.4-1.7v17.4h-10.3v-59.1c2.1-0.6,4.7-1.1,7.8-1.6
			c3.1-0.5,6.3-0.8,9.8-0.8c3.5,0,6.7,0.5,9.5,1.6c2.8,1.1,5.2,2.6,7.2,4.7c2,2,3.5,4.5,4.5,7.4
			C478.9,253.3,479.4,256.6,479.4,260.2z M468.8,260.3c0-4.6-1-8.2-3.1-10.8c-2.1-2.6-5.4-3.8-10.1-3.8c-1,0-2,0-3,0.1
			c-1.1,0.1-2.1,0.3-3.1,0.6V272c0.9,0.6,2.1,1.2,3.6,1.7c1.5,0.5,3.1,0.8,4.8,0.8c3.8,0,6.5-1.3,8.2-3.8
			C468,268.1,468.8,264.7,468.8,260.3z"/>
		<path class="st4" d="M487.1,259.3c0-3.9,0.6-7.4,1.7-10.4c1.2-3,2.7-5.4,4.7-7.4c1.9-2,4.2-3.5,6.7-4.5c2.5-1,5.1-1.5,7.7-1.5
			c6.1,0,11,1.9,14.4,5.7c3.4,3.8,5.2,9.5,5.2,17.1c0,0.6,0,1.2,0,1.9c0,0.7-0.1,1.4-0.1,1.9h-29.5c0.3,3.6,1.6,6.4,3.8,8.3
			s5.5,3,9.8,3c2.5,0,4.8-0.2,6.9-0.7c2.1-0.5,3.7-0.9,4.9-1.4l1.4,8.5c-0.6,0.3-1.4,0.6-2.4,0.9c-1,0.3-2.1,0.6-3.4,0.9
			c-1.3,0.3-2.7,0.5-4.1,0.6c-1.5,0.2-3,0.3-4.5,0.3c-3.9,0-7.4-0.6-10.3-1.7s-5.3-2.8-7.2-4.9c-1.9-2.1-3.3-4.5-4.2-7.4
			C487.6,265.8,487.1,262.7,487.1,259.3z M517.2,254.7c0-1.4-0.2-2.8-0.6-4.1c-0.4-1.3-1-2.4-1.8-3.3c-0.8-0.9-1.7-1.7-2.8-2.2
			c-1.1-0.5-2.4-0.8-4-0.8c-1.6,0-3,0.3-4.2,0.9c-1.2,0.6-2.2,1.4-3,2.4c-0.8,1-1.5,2.1-1.9,3.3c-0.5,1.3-0.8,2.5-0.9,3.8
			L517.2,254.7L517.2,254.7z"/>
		<path class="st4" d="M552.8,235.8c3.4,0,6.3,0.4,8.6,1.3c2.3,0.9,4.2,2.1,5.6,3.6c1.4,1.5,2.4,3.4,3,5.6c0.6,2.2,0.9,4.6,0.9,7.2
			v27.1c-1.6,0.3-4,0.8-7.2,1.2c-3.2,0.5-6.8,0.7-10.9,0.7c-2.7,0-5.1-0.3-7.4-0.8c-2.2-0.5-4.1-1.3-5.7-2.5
			c-1.6-1.1-2.8-2.6-3.7-4.4c-0.9-1.8-1.3-4.1-1.3-6.8c0-2.6,0.5-4.7,1.5-6.5c1-1.8,2.4-3.2,4.1-4.3c1.7-1.1,3.7-1.9,5.9-2.4
			c2.3-0.5,4.6-0.7,7.1-0.7c1.1,0,2.3,0.1,3.6,0.2c1.2,0.1,2.6,0.4,4,0.7v-1.7c0-1.2-0.1-2.3-0.4-3.4c-0.3-1.1-0.8-2-1.5-2.9
			c-0.7-0.8-1.6-1.5-2.8-1.9c-1.2-0.4-2.6-0.7-4.4-0.7c-2.4,0-4.6,0.2-6.6,0.5c-2,0.3-3.6,0.7-4.9,1.2l-1.3-8.4
			c1.3-0.5,3.2-0.9,5.7-1.4C547.3,236,550,235.8,552.8,235.8z M553.7,274.4c3.2,0,5.6-0.2,7.3-0.5v-11.5c-0.6-0.2-1.4-0.3-2.5-0.5
			c-1.1-0.2-2.3-0.3-3.6-0.3c-1.2,0-2.3,0.1-3.5,0.3c-1.2,0.2-2.2,0.5-3.2,0.9c-1,0.5-1.7,1.1-2.3,1.9c-0.6,0.8-0.9,1.9-0.9,3.1
			c0,2.5,0.8,4.1,2.3,5.1C549,273.9,551.1,274.4,553.7,274.4z"/>
		<path class="st4" d="M583.1,239.2c2-0.6,4.6-1.1,7.8-1.6c3.2-0.5,6.7-0.8,10.6-0.8c3.6,0,6.7,0.5,9.1,1.5c2.5,1,4.4,2.4,5.9,4.2
			c1.5,1.8,2.5,4,3.1,6.5c0.6,2.5,0.9,5.3,0.9,8.3v25.2h-10.4V259c0-2.4-0.2-4.4-0.5-6.1c-0.3-1.7-0.8-3.1-1.5-4.1
			c-0.7-1.1-1.7-1.8-2.9-2.3c-1.2-0.5-2.7-0.7-4.5-0.7c-1.3,0-2.7,0.1-4.1,0.3c-1.4,0.2-2.5,0.3-3.2,0.4v36.1h-10.3
			C583.1,282.5,583.1,239.2,583.1,239.2z"/>
		<path class="st4" d="M257.5,361.5v-59.3H295v9.2h-26.7v15.1H292v9.2h-23.7v25.8L257.5,361.5L257.5,361.5z"/>
		<path class="st4" d="M338.5,359.2c-2,0.5-4.6,1-7.8,1.6c-3.2,0.5-6.7,0.8-10.5,0.8c-3.6,0-6.6-0.5-9-1.5c-2.4-1-4.4-2.4-5.8-4.3
			c-1.5-1.8-2.5-4-3.1-6.5s-0.9-5.3-0.9-8.3v-25.1h10.3v23.4c0,4.8,0.7,8.2,2.1,10.3c1.4,2.1,3.8,3.1,7.3,3.1c1.3,0,2.6-0.1,4-0.2
			c1.4-0.1,2.4-0.2,3.1-0.4v-36.2h10.4C338.5,315.8,338.5,359.2,338.5,359.2z"/>
		<path class="st4" d="M351.1,318.2c2-0.6,4.6-1.1,7.8-1.6c3.2-0.5,6.7-0.8,10.6-0.8c3.7,0,6.7,0.5,9.2,1.5c2.5,1,4.4,2.4,5.9,4.2
			c1.5,1.8,2.5,4,3.1,6.5c0.6,2.5,0.9,5.3,0.9,8.3v25.2h-10.4V338c0-2.4-0.2-4.4-0.5-6.1c-0.3-1.7-0.8-3-1.5-4.1
			c-0.7-1.1-1.7-1.8-2.9-2.3c-1.2-0.5-2.7-0.7-4.5-0.7c-1.3,0-2.7,0.1-4.1,0.2c-1.4,0.2-2.5,0.3-3.2,0.4v36.1h-10.4L351.1,318.2
			L351.1,318.2z"/>
		<path class="st4" d="M438.5,359.1c-2,0.6-4.6,1.2-7.7,1.7c-3.1,0.5-6.4,0.8-9.8,0.8c-3.5,0-6.7-0.5-9.5-1.6
			c-2.8-1.1-5.2-2.6-7.2-4.7c-2-2-3.5-4.5-4.5-7.4c-1.1-2.9-1.6-6.1-1.6-9.7c0-3.5,0.4-6.7,1.3-9.6c0.9-2.9,2.2-5.3,3.9-7.4
			c1.7-2.1,3.8-3.6,6.2-4.7c2.5-1.1,5.3-1.7,8.5-1.7c2.2,0,4.1,0.3,5.7,0.8c1.6,0.5,3.1,1.1,4.3,1.7v-13.3l10.3-1.7V359.1z
			 M408.8,338c0,4.6,1.1,8.1,3.2,10.7c2.2,2.6,5.2,3.9,9,3.9c1.6,0,3.1-0.1,4.2-0.2c1.2-0.1,2.1-0.3,2.9-0.5v-25.7
			c-0.9-0.6-2.1-1.2-3.6-1.8c-1.5-0.5-3.1-0.8-4.8-0.8c-3.8,0-6.5,1.3-8.2,3.8C409.7,330.1,408.8,333.6,408.8,338z"/>
		<path class="st4" d="M462.3,353c2.7,0,4.7-0.3,6-1c1.3-0.6,1.9-1.8,1.9-3.4c0-1.5-0.7-2.7-2-3.7c-1.3-1-3.5-2-6.6-3.2
			c-1.9-0.7-3.6-1.4-5.2-2.2c-1.6-0.8-2.9-1.7-4.1-2.7c-1.1-1-2-2.3-2.7-3.7c-0.6-1.5-1-3.2-1-5.4c0-4.1,1.5-7.3,4.5-9.7
			c3-2.4,7.1-3.5,12.3-3.5c2.6,0,5.1,0.2,7.5,0.7c2.4,0.5,4.2,1,5.4,1.4l-1.9,8.4c-1.1-0.5-2.6-1-4.4-1.4c-1.8-0.4-3.8-0.6-6.2-0.6
			c-2.1,0-3.8,0.4-5.1,1.1c-1.3,0.7-2,1.8-2,3.3c0,0.7,0.1,1.4,0.4,2c0.2,0.6,0.7,1.1,1.3,1.6c0.6,0.5,1.5,1,2.5,1.5
			c1,0.5,2.3,1,3.8,1.5c2.4,0.9,4.5,1.8,6.2,2.7c1.7,0.9,3.1,1.9,4.2,3c1.1,1.1,1.9,2.4,2.4,3.8c0.5,1.4,0.8,3.2,0.8,5.1
			c0,4.3-1.6,7.5-4.7,9.7c-3.2,2.2-7.7,3.3-13.6,3.3c-3.9,0-7.1-0.3-9.5-1c-2.4-0.7-4.1-1.2-5.1-1.6l1.8-8.6
			c1.6,0.6,3.4,1.2,5.5,1.8C457.2,352.7,459.6,353,462.3,353z"/>
	</g>
	<g>
		<path class="st4" d="M266.7,435.8c5.7,0,8.6-2,8.6-5.9c0-1.2-0.3-2.2-0.8-3.1c-0.5-0.8-1.2-1.6-2.1-2.2c-0.9-0.6-1.8-1.2-3-1.6
			c-1.1-0.4-2.3-0.9-3.5-1.3c-1.4-0.5-2.8-1-4.1-1.7c-1.3-0.6-2.4-1.4-3.3-2.2c-0.9-0.9-1.7-1.8-2.2-3c-0.5-1.2-0.8-2.6-0.8-4.2
			c0-3.4,1.2-6.1,3.5-8c2.3-1.9,5.5-2.9,9.7-2.9c2.4,0,4.5,0.2,6.5,0.8c1.9,0.5,3.4,1.1,4.3,1.7l-1.7,4.5c-0.8-0.5-2-1-3.5-1.4
			c-1.6-0.5-3.4-0.7-5.4-0.7c-1.1,0-2,0.1-2.9,0.3c-0.9,0.2-1.7,0.6-2.4,1c-0.7,0.4-1.2,1-1.6,1.7c-0.4,0.7-0.6,1.5-0.6,2.5
			c0,1.1,0.2,1.9,0.6,2.7c0.4,0.7,1,1.3,1.7,1.9c0.8,0.6,1.6,1,2.6,1.5c1,0.4,2.1,0.9,3.3,1.3c1.7,0.7,3.2,1.4,4.7,2
			c1.4,0.7,2.6,1.5,3.7,2.4c1,1,1.8,2.1,2.4,3.4c0.6,1.3,0.8,2.9,0.8,4.7c0,3.4-1.2,6.1-3.8,7.9c-2.5,1.8-6,2.8-10.6,2.8
			c-1.5,0-3-0.1-4.3-0.3c-1.3-0.2-2.5-0.5-3.5-0.7c-1-0.3-1.9-0.6-2.6-0.9c-0.7-0.3-1.3-0.6-1.7-0.8l1.6-4.5c0.9,0.5,2.2,1,4,1.6
			C262,435.5,264.1,435.8,266.7,435.8z"/>
		<path class="st4" d="M287,412.1c1.2-0.3,2.8-0.6,4.8-1c2-0.3,4.3-0.5,6.9-0.5c1.9,0,3.5,0.2,4.7,0.8c1.3,0.5,2.4,1.2,3.2,2.2
			c0.3-0.2,0.7-0.4,1.2-0.8c0.6-0.3,1.3-0.7,2.1-1c0.8-0.3,1.7-0.6,2.8-0.8c1-0.2,2.1-0.4,3.3-0.4c2.3,0,4.1,0.3,5.5,1
			c1.4,0.7,2.6,1.6,3.4,2.8c0.8,1.2,1.4,2.6,1.6,4.3c0.3,1.7,0.4,3.5,0.4,5.4v16.5h-5.3v-15.4c0-1.7-0.1-3.2-0.2-4.5
			c-0.2-1.2-0.5-2.3-1-3.1c-0.5-0.8-1.1-1.4-1.9-1.8c-0.8-0.4-1.9-0.6-3.1-0.6c-1.8,0-3.2,0.2-4.4,0.7c-1.1,0.5-1.9,0.9-2.3,1.3
			c0.3,1,0.5,2.1,0.7,3.2c0.1,1.2,0.2,2.4,0.2,3.7v16.5h-5.2v-15.4c0-1.7-0.1-3.2-0.3-4.5c-0.2-1.2-0.5-2.3-1-3.1
			c-0.5-0.8-1.1-1.4-1.9-1.8c-0.8-0.4-1.8-0.6-3.1-0.6c-0.5,0-1.1,0-1.7,0.1c-0.6,0-1.2,0.1-1.7,0.1c-0.5,0.1-1,0.1-1.5,0.2
			c-0.4,0.1-0.7,0.1-0.9,0.2v24.8H287L287,412.1L287,412.1z"/>
		<path class="st4" d="M344.8,409.9c2.1,0,3.9,0.3,5.3,0.8c1.5,0.5,2.6,1.3,3.5,2.3s1.5,2.2,1.9,3.6c0.4,1.4,0.6,2.9,0.6,4.5v18.4
			c-0.4,0.1-1.1,0.2-1.9,0.3c-0.8,0.1-1.7,0.3-2.7,0.4c-1,0.1-2.1,0.2-3.3,0.3c-1.2,0.1-2.4,0.1-3.5,0.1c-1.6,0-3.2-0.2-4.6-0.5
			c-1.4-0.3-2.6-0.9-3.6-1.6c-1-0.7-1.8-1.7-2.4-2.9c-0.6-1.2-0.8-2.6-0.8-4.3c0-1.6,0.3-3,1-4.2c0.7-1.2,1.6-2.1,2.7-2.8
			c1.1-0.7,2.4-1.2,3.9-1.6c1.5-0.3,3.1-0.5,4.7-0.5c0.5,0,1.1,0,1.6,0.1c0.6,0.1,1.1,0.1,1.6,0.2c0.5,0.1,1,0.2,1.3,0.2
			c0.4,0.1,0.6,0.1,0.8,0.2v-1.5c0-0.9-0.1-1.7-0.3-2.6c-0.2-0.8-0.5-1.6-1-2.3c-0.5-0.7-1.2-1.2-2-1.6c-0.8-0.4-1.9-0.6-3.3-0.6
			c-1.7,0-3.3,0.1-4.6,0.4c-1.3,0.2-2.3,0.5-2.9,0.7l-0.6-4.3c0.7-0.3,1.8-0.6,3.4-0.9C341.3,410.1,343,409.9,344.8,409.9z
			 M345.3,436.2c1.3,0,2.4,0,3.3-0.1c1-0.1,1.8-0.2,2.4-0.3v-8.8c-0.4-0.2-1-0.3-1.8-0.5c-0.8-0.1-1.9-0.2-3.1-0.2
			c-0.8,0-1.6,0.1-2.5,0.2c-0.9,0.1-1.7,0.3-2.4,0.7c-0.7,0.4-1.3,0.9-1.8,1.5c-0.5,0.6-0.7,1.4-0.7,2.5c0,1.9,0.6,3.2,1.8,3.9
			C341.6,435.9,343.2,436.2,345.3,436.2z"/>
		<path class="st4" d="M375.4,410.6c0.4,0,1,0,1.5,0.1c0.6,0.1,1.2,0.1,1.7,0.2c0.6,0.1,1.1,0.2,1.5,0.3c0.5,0.1,0.8,0.2,1,0.2
			l-0.9,4.6c-0.4-0.1-1.1-0.3-2.1-0.5c-1-0.2-2.2-0.3-3.7-0.3c-1,0-2,0.1-2.9,0.3c-1,0.2-1.6,0.4-1.9,0.4v24.7h-5.2v-28.1
			c1.2-0.4,2.8-0.9,4.6-1.3C371,410.8,373.1,410.6,375.4,410.6z"/>
		<path class="st4" d="M391,410.6h11.1v4.4H391v13.5c0,1.5,0.1,2.7,0.3,3.7c0.2,1,0.6,1.7,1,2.3c0.4,0.5,1,0.9,1.7,1.1
			c0.7,0.2,1.5,0.3,2.4,0.3c1.6,0,2.8-0.2,3.8-0.5c1-0.4,1.6-0.6,2-0.7l1,4.3c-0.5,0.3-1.5,0.6-2.8,1c-1.3,0.4-2.8,0.6-4.5,0.6
			c-2,0-3.6-0.2-4.9-0.8c-1.3-0.5-2.4-1.3-3.1-2.3c-0.8-1-1.3-2.3-1.7-3.8c-0.3-1.5-0.5-3.2-0.5-5.2v-26.2l5.2-0.9
			C391,401.5,391,410.6,391,410.6z"/>
		<path class="st4" d="M445.4,420.5h5.5v18.3c-0.4,0.2-1.1,0.3-2,0.5c-0.8,0.2-1.8,0.4-2.9,0.6c-1.1,0.2-2.3,0.3-3.6,0.5
			c-1.3,0.1-2.7,0.2-4,0.2c-2.7,0-5.2-0.4-7.5-1.3c-2.3-0.9-4.2-2.2-5.8-4s-2.9-3.9-3.8-6.4c-0.9-2.5-1.3-5.4-1.3-8.7
			c0-3.3,0.5-6.2,1.5-8.7c1-2.5,2.4-4.7,4-6.4c1.7-1.7,3.7-3.1,6-4c2.3-0.9,4.7-1.4,7.3-1.4c1.8,0,3.3,0.1,4.7,0.3s2.5,0.5,3.5,0.8
			c1,0.3,1.8,0.6,2.4,0.9c0.6,0.3,1,0.5,1.3,0.7l-1.8,4.6c-1.1-0.7-2.5-1.3-4.3-1.8c-1.8-0.5-3.7-0.7-5.5-0.7c-2,0-3.8,0.4-5.5,1.1
			c-1.6,0.7-3,1.8-4.2,3.1c-1.2,1.3-2,3-2.7,4.9c-0.6,1.9-1,4.1-1,6.5c0,2.3,0.3,4.5,0.8,6.4c0.5,1.9,1.4,3.6,2.5,4.9
			c1.1,1.4,2.5,2.4,4.1,3.2c1.6,0.7,3.6,1.1,5.8,1.1c1.6,0,2.9-0.1,4-0.3c1.1-0.2,1.9-0.3,2.4-0.5L445.4,420.5L445.4,420.5z"/>
		<path class="st4" d="M469.7,410.6c0.4,0,1,0,1.6,0.1c0.6,0.1,1.1,0.1,1.7,0.2c0.6,0.1,1.1,0.2,1.6,0.3c0.5,0.1,0.8,0.2,1,0.2
			l-0.9,4.6c-0.4-0.1-1.1-0.3-2.1-0.5c-1-0.2-2.2-0.3-3.7-0.3c-1,0-1.9,0.1-2.9,0.3c-1,0.2-1.6,0.4-1.9,0.4v24.7h-5.2v-28.1
			c1.2-0.4,2.8-0.9,4.6-1.3C465.3,410.8,467.4,410.6,469.7,410.6z"/>
		<path class="st4" d="M506.3,425.2c0,2.3-0.3,4.4-1,6.3c-0.7,1.9-1.6,3.5-2.9,4.9c-1.2,1.3-2.7,2.4-4.4,3.1
			c-1.7,0.7-3.5,1.1-5.5,1.1c-2,0-3.8-0.4-5.5-1.1c-1.7-0.7-3.1-1.8-4.4-3.1c-1.2-1.4-2.2-3-2.8-4.9c-0.7-1.9-1-4-1-6.3
			c0-2.3,0.3-4.4,1-6.3c0.7-1.9,1.6-3.5,2.8-4.9c1.2-1.4,2.7-2.4,4.4-3.1c1.7-0.7,3.5-1.1,5.5-1.1c2,0,3.8,0.4,5.5,1.1
			c1.7,0.7,3.2,1.8,4.4,3.1c1.2,1.4,2.2,3,2.9,4.9C505.9,420.8,506.3,422.9,506.3,425.2z M500.8,425.2c0-3.3-0.7-5.9-2.2-7.9
			c-1.5-1.9-3.5-2.9-6.1-2.9s-4.6,1-6.1,2.9c-1.5,1.9-2.2,4.6-2.2,7.9s0.7,5.9,2.2,7.9c1.5,1.9,3.5,2.9,6.1,2.9s4.6-1,6.1-2.9
			C500.1,431.2,500.8,428.5,500.8,425.2z"/>
		<path class="st4" d="M536.7,440.6c-1.1-2.7-2.2-5.8-3.4-9.3c-1.2-3.5-2.3-7.1-3.2-10.9c-1,3.8-2,7.4-3.2,10.9
			c-1.2,3.5-2.3,6.6-3.3,9.3h-4.6c-1.7-3.9-3.4-8.3-5.1-13.3c-1.6-5-3.2-10.3-4.7-16.1h5.6c0.4,1.8,0.8,3.7,1.4,5.8
			c0.5,2.1,1.1,4.1,1.6,6.2c0.6,2.1,1.2,4.1,1.8,6c0.6,1.9,1.2,3.6,1.8,5c0.6-1.8,1.3-3.6,1.9-5.6c0.6-2,1.2-4,1.8-6
			c0.6-2,1.1-4,1.6-5.9c0.5-1.9,1-3.8,1.3-5.5h4.4c0.3,1.7,0.7,3.5,1.2,5.5s1,3.9,1.6,5.9c0.6,2,1.2,4,1.8,6c0.6,2,1.3,3.8,1.9,5.6
			c0.6-1.4,1.2-3.1,1.8-5c0.6-1.9,1.2-3.9,1.8-6c0.6-2.1,1.2-4.1,1.7-6.2c0.5-2.1,1-4,1.3-5.8h5.4c-1.5,5.8-3,11.1-4.7,16.1
			c-1.6,5-3.3,9.4-5.1,13.3H536.7z"/>
		<path class="st4" d="M561.1,410.6h11.1v4.4h-11.1v13.5c0,1.5,0.1,2.7,0.3,3.7c0.2,1,0.6,1.7,1,2.3c0.4,0.5,1,0.9,1.7,1.1
			c0.7,0.2,1.5,0.3,2.4,0.3c1.6,0,2.9-0.2,3.8-0.5c1-0.4,1.6-0.6,2-0.7l1,4.3c-0.5,0.3-1.5,0.6-2.8,1c-1.3,0.4-2.8,0.6-4.5,0.6
			c-2,0-3.6-0.2-4.9-0.8c-1.3-0.5-2.4-1.3-3.1-2.3c-0.8-1-1.3-2.3-1.7-3.8c-0.3-1.5-0.5-3.2-0.5-5.2v-26.2l5.2-0.9V410.6z"/>
		<path class="st4" d="M578.6,440.6v-42.9l5.2-0.9v15c1-0.4,2-0.7,3.2-0.9c1.1-0.2,2.2-0.3,3.3-0.3c2.4,0,4.3,0.3,5.8,1
			c1.5,0.7,2.8,1.6,3.7,2.8c0.9,1.2,1.6,2.6,2,4.3c0.4,1.6,0.6,3.5,0.6,5.5v16.5h-5.2v-15.4c0-1.8-0.1-3.4-0.4-4.6
			c-0.2-1.3-0.6-2.3-1.2-3.1c-0.6-0.8-1.3-1.4-2.3-1.7c-0.9-0.3-2.1-0.5-3.5-0.5c-0.6,0-1.1,0-1.8,0.1c-0.6,0.1-1.2,0.2-1.7,0.2
			c-0.6,0.1-1,0.2-1.5,0.3c-0.4,0.1-0.7,0.2-1,0.3v24.4H578.6z"/>
	</g>
</g>
</svg>
